<?xml version="1.0" encoding="utf-8"?>
<!-- Generator: Adobe Illustrator 23.0.0, SVG Export Plug-In . SVG Version: 6.00 Build 0)  -->
<svg version="1.1" id="Layer_1" xmlns="http://www.w3.org/2000/svg" xmlns:xlink="http://www.w3.org/1999/xlink" x="0px" y="0px"
	 viewBox="0 0 300.3 212.5" style="enable-background:new 0 0 300.3 212.5;" xml:space="preserve">
<style type="text/css">
	.st0{fill:#006837;}
</style>
<title>drink_060-teapot-tea-cup-pottery</title>
<desc>Created with Sketch.</desc>
<g>
	<g transform="translate(-476.000000, -284.000000)">
		<g transform="translate(475.000000, 288.000000)">
			<path class="st0" d="M212,191.1c2.4-2.4,2.4-6.4,0-8.8c-2.4-2.4-6.4-2.4-8.8,0c-5.6,5.6-12,10.5-19.1,14.5
				c-3,1.7-4.1,5.5-2.4,8.5c1.7,3,5.5,4.1,8.5,2.4C198.2,203.2,205.6,197.6,212,191.1z"/>
			<path class="st0" d="M187.1,208.5c3.5,0,6.2-2.8,6.2-6.3s-2.8-6.3-6.2-6.3H90.5c-3.5,0-6.3,2.8-6.3,6.3s2.8,6.3,6.3,6.3H187.1z"
				/>
			<path class="st0" d="M138.8,33.5c-55.1,0-100,41.9-100,93.8c0,33.4,18.7,63.6,48.6,80.4c3,1.7,6.8,0.6,8.5-2.4s0.6-6.8-2.4-8.5
				c-26.1-14.7-42.2-40.8-42.2-69.6c0-44.8,39.1-81.3,87.5-81.3s87.5,36.5,87.5,81.3c0,3.5,2.8,6.3,6.3,6.3s6.3-2.8,6.3-6.3
				C238.8,75.4,193.9,33.5,138.8,33.5z"/>
			<path class="st0" d="M292.2,76.9c3.1,1.6,6.8,0.4,8.4-2.7s0.4-6.8-2.7-8.4l-20.7-10.6c-3.1-1.6-6.8-0.4-8.4,2.7
				c-1.6,3.1-0.4,6.8,2.7,8.4L292.2,76.9z"/>
			<path class="st0" d="M251.2,84.8c7.9-9.2,16.1-15.4,25-18.1c3.3-1,5.2-4.5,4.2-7.8s-4.5-5.2-7.8-4.2c-11.5,3.5-21.5,11.1-30.8,22
				c-4,4.6-7,8.8-11.4,15.2c-2.4,3.5-2.6,3.8-3.3,4.7c0,0-0.2,0.2,1.3-0.2c-3.3,0.9-5.3,4.3-4.4,7.7c0.9,3.3,4.3,5.3,7.7,4.4
				C235,107.6,247.8,88.7,251.2,84.8z"/>
			<path class="st0" d="M265.2,122.8c0,3.5,2.8,6.3,6.3,6.3s6.3-2.8,6.3-6.3c0-20.9,6.1-38.3,20.3-46c3-1.6,4.2-5.4,2.6-8.5
				c-1.6-3-5.4-4.2-8.5-2.6C272.7,76.2,265.2,97.8,265.2,122.8z"/>
			<path class="st0" d="M163.8,21c0-13.8-11.2-25-25-25s-25,11.2-25,25s11.2,25,25,25S163.8,34.8,163.8,21z M126.3,21
				c0-6.9,5.6-12.5,12.5-12.5s12.5,5.6,12.5,12.5s-5.6,12.5-12.5,12.5C131.9,33.5,126.3,27.9,126.3,21z"/>
			<path class="st0" d="M94.2,76.9c12.2,4.1,27,6.6,44.6,6.6s32.4-2.5,44.6-6.6c7.5-2.5,12.6-5.2,15.3-7.1l5.1-3.6L196.5,56
				l-5.1,3.6c-1.7,1.2-5.7,3.3-12,5.4c-10.9,3.8-24.4,6-40.6,6s-29.7-2.2-40.6-5.9c-6.3-2.1-10.3-4.2-12-5.4L81.1,56l-7.2,10.2
				l5.1,3.6C81.6,71.8,86.7,74.4,94.2,76.9z"/>
			<path class="st0" d="M60.5,61.1c-10.9-11.5-24.8-15.6-40.3-7c-35.5,19.7-20.6,96.4,34.6,123.5c3.1,1.5,6.8,0.2,8.4-2.9
				c1.5-3.1,0.2-6.8-2.9-8.4c-47-23.1-59.5-87.2-34-101.3c9.8-5.4,17.8-3.1,25.1,4.7c2.9,3.1,4.9,6.2,5.9,8.1
				c1.6,3.1,5.3,4.3,8.4,2.8c3.1-1.6,4.3-5.3,2.8-8.4C67,69.3,64.4,65.2,60.5,61.1z"/>
			<path class="st0" d="M188.8,127.3v21.4c0,31.1,23.9,59.8,43.8,59.8h25c19.8,0,43.8-28.7,43.8-59.8v-21.4c0-3.5-2.8-6.3-6.3-6.3
				h-100C191.6,121,188.8,123.8,188.8,127.3z M288.8,133.5v15.2c0,24.6-18.9,47.3-31.3,47.3h-25c-12.3,0-31.3-22.7-31.3-47.3v-15.2
				H288.8z"/>
		</g>
	</g>
</g>
</svg>
