<svg height='300px' width='300px'  fill="#006837" xmlns="http://www.w3.org/2000/svg" xmlns:xlink="http://www.w3.org/1999/xlink" version="1.1" x="0px" y="0px" viewBox="0 0 91 91" enable-background="new 0 0 91 91" xml:space="preserve"><g><path d="M42.479,65.09c-3.153,6.413-4.493,11.512-4.786,12.725c-0.203,0.838,0.311,1.682,1.148,1.884   c0.124,0.03,0.248,0.044,0.369,0.044c0.703,0,1.342-0.479,1.516-1.193c0.428-1.767,3.191-12.216,10.906-22.527   c0.152-0.014,0.305-0.043,0.453-0.104c6.627-2.719,14.219-1,14.295-0.982c0.838,0.19,1.68-0.325,1.875-1.164   s-0.322-1.678-1.162-1.875c-0.281-0.066-5.824-1.331-11.963-0.121c4.254-4.705,9.652-9.119,16.475-12.346   c0.779-0.368,1.113-1.299,0.744-2.078c-0.369-0.78-1.303-1.113-2.078-0.744c-4.322,2.044-8.094,4.542-11.398,7.28l1.154-4.027   c0.236-0.829-0.242-1.693-1.07-1.93c-0.824-0.237-1.691,0.241-1.93,1.07l-2.322,8.103c-0.063,0.214-0.074,0.43-0.045,0.637   c-4.484,4.54-7.875,9.449-10.404,13.973c-2.189-4.845-2.533-10.155-0.938-15.152c1.772-5.549,5.78-10.26,10.724-12.601   c9.172-4.342,18.904-4.668,30.49-3.581c-1.184,1.913-2.447,4.021-3.178,5.354c-2.832,5.161-4.104,10.822-5.076,15.723   c-1.104,5.574-4.195,10.38-8.48,13.185c-4.637,3.035-10.443,3.816-17.252,2.32c-0.842-0.179-1.676,0.348-1.859,1.189   c-0.186,0.843,0.348,1.675,1.189,1.859c2.412,0.529,4.748,0.793,6.98,0.793c4.756,0,9.051-1.194,12.65-3.55   c5.057-3.31,8.549-8.704,9.834-15.189c0.926-4.673,2.133-10.057,4.752-14.83c0.988-1.808,3.012-5.118,4.412-7.314l1.354-2.122   l-2.502-0.269c-10.652-1.146-22.996-1.908-34.65,3.611c-5.711,2.705-10.331,8.115-12.361,14.473   c-2.057,6.441-1.321,13.325,2.07,19.385C42.434,65.03,42.459,65.058,42.479,65.09z"></path><path d="M8.76,39.785c1.359,6.856,8.1,13.397,17.096,13.397c0.943,0,1.913-0.071,2.902-0.223c0.853-0.13,1.438-0.927,1.308-1.778   c-0.13-0.853-0.929-1.429-1.778-1.308c-8.326,1.269-15.238-4.503-16.466-10.696c-0.667-3.36-1.541-7.244-3.493-10.806   c-0.412-0.75-1.072-1.863-1.745-2.963c7.42-0.641,13.707-0.344,19.614,2.455c3.229,1.529,5.85,4.611,7.01,8.244   c0.67,2.102,1.102,5.142-0.076,8.582c-3.156-4.949-7.097-9.186-11.801-12.65c-0.695-0.512-1.672-0.363-2.182,0.332   c-0.512,0.694-0.363,1.671,0.331,2.182c7.137,5.256,12.417,12.419,15.696,21.291c0.232,0.63,0.83,1.021,1.464,1.021   c0.18,0,0.362-0.031,0.541-0.098c0.809-0.299,1.222-1.196,0.923-2.005c-0.874-2.364-1.883-4.616-3.023-6.751   c2.053-4.062,2.461-8.592,1.1-12.852c-1.418-4.442-4.65-8.224-8.646-10.116c-8.021-3.799-16.477-3.279-23.771-2.494l-2.501,0.27   l1.351,2.121c0.949,1.488,2.314,3.723,2.979,4.935C7.33,33.046,8.139,36.653,8.76,39.785z"></path></g></svg>