<?xml version="1.0" encoding="utf-8"?>
<!-- Generator: Adobe Illustrator 23.0.0, SVG Export Plug-In . SVG Version: 6.00 Build 0)  -->
<svg version="1.1" id="Layer_1" xmlns="http://www.w3.org/2000/svg" xmlns:xlink="http://www.w3.org/1999/xlink" x="0px" y="0px"
	 viewBox="0 0 146.5 96.5" style="enable-background:new 0 0 146.5 96.5;" xml:space="preserve">
<style type="text/css">
	.st0{fill:#006837;}
</style>
<path class="st0" d="M143.5,28.1h-7.8v-6.3c0-1.9-0.9-3.6-2.4-4.8L112.7,1.2c0,0,0,0,0,0c-1-0.8-2.3-1.2-3.6-1.2H26.7
	c-1.3,0-2.6,0.4-3.6,1.2L2.4,17C0.9,18.1,0,19.9,0,21.8V75c0,3.3,2.7,6,6,6h78.3v12.5c0,1.7,1.3,3,3,3h56.2c1.7,0,3-1.3,3-3V31.1
	C146.5,29.4,145.2,28.1,143.5,28.1z M26.7,6H109c0,0,0,0,0,0l14.8,11.3h-112L26.7,6z M84.3,31.1v7.2H70.5c-1.7,0-3,1.3-3,3
	s1.3,3,3,3h13.8V54H70.5c-1.7,0-3,1.3-3,3s1.3,3,3,3h13.8v15H6V23.3h123.7v4.8H87.3C85.6,28.1,84.3,29.4,84.3,31.1z M140.5,90.5
	H90.3V55.9h14.2c0.8,5.3,5.4,9.4,10.9,9.4c5.5,0,10.1-4.1,10.9-9.4h14.2V90.5z M110.3,54.2c0-2.8,2.3-5.1,5.1-5.1s5.1,2.3,5.1,5.1
	s-2.3,5.1-5.1,5.1S110.3,57,110.3,54.2z M140.5,49.9h-14.9c-1.7-4-5.6-6.8-10.2-6.8c-4.6,0-8.5,2.8-10.2,6.8H90.3V34.1h50.2V49.9z
	 M52.5,30.7l-5.2,5.2c-5.8-3.8-15-2-21.6,4.7c-7.1,7.1-7.5,24.6-7.5,25.3c0,0.6,0.2,1.2,0.7,1.6c0.4,0.4,1,0.7,1.6,0.7c0,0,0,0,0,0
	c0.7,0,18.3-0.4,25.3-7.5c6.6-6.6,8.4-15.8,4.7-21.6l5.2-5.2c0.9-0.9,0.9-2.3,0-3.2S53.4,29.8,52.5,30.7z M42.7,57.5
	c-4.1,4.1-14.2,5.6-19.8,6.1c0.4-5.7,1.9-15.7,6.1-19.8c3.5-3.5,7.8-5.3,11.5-5.3c1.3,0,2.6,0.3,3.6,0.8l-3.1,3.1l-6.5,0
	c-1.2,0-2.2,1-2.2,2.3c0,1.2,1,2.2,2.3,2.2c0,0,0,0,0,0l1.9,0l-1.6,1.6l-6.5,0c-1.2,0-2.2,1-2.2,2.3c0,1.2,1,2.2,2.3,2.2
	c0,0,0,0,0,0l1.9,0l-3.9,3.9c-0.9,0.9-0.9,2.3,0,3.2c0.4,0.4,1,0.7,1.6,0.7s1.2-0.2,1.6-0.7l3.9-3.9l0,1.9c0,1.2,1,2.3,2.2,2.3
	c0,0,0,0,0,0c1.2,0,2.2-1,2.3-2.2l0-6.5l1.6-1.6l0,1.9c0,1.2,1,2.3,2.2,2.3c0,0,0,0,0,0c1.2,0,2.2-1,2.3-2.2l0-6.5l3.1-3.1
	C49.2,46.5,47.5,52.7,42.7,57.5z"/>
</svg>
