<svg xmlns="http://www.w3.org/2000/svg" xmlns:xlink="http://www.w3.org/1999/xlink" viewBox="0 0 911.37 857.51"><defs><style>.cls-1{fill:url(#linear-gradient);}.cls-2{fill:url(#linear-gradient-2);}.cls-3{fill:url(#linear-gradient-3);}.cls-4{fill:url(#linear-gradient-4);}.cls-5{fill:url(#linear-gradient-5);}.cls-6{fill:url(#linear-gradient-6);}</style><linearGradient id="linear-gradient" x1="-504.48" y1="732.72" x2="535.73" y2="124.42" gradientUnits="userSpaceOnUse"><stop offset="0" stop-color="#00b09b"/><stop offset="1" stop-color="#96c93d"/></linearGradient><linearGradient id="linear-gradient-2" x1="-404.27" y1="904.42" x2="635.93" y2="296.12" xlink:href="#linear-gradient"/><linearGradient id="linear-gradient-3" x1="-397.04" y1="916.78" x2="643.16" y2="308.49" xlink:href="#linear-gradient"/><linearGradient id="linear-gradient-4" x1="-486.74" y1="763.4" x2="553.47" y2="155.11" xlink:href="#linear-gradient"/><linearGradient id="linear-gradient-5" x1="-423.12" y1="872.19" x2="617.09" y2="263.89" xlink:href="#linear-gradient"/><linearGradient id="linear-gradient-6" x1="-385.84" y1="935.93" x2="654.36" y2="327.64" xlink:href="#linear-gradient"/></defs><g id="Layer_2" data-name="Layer 2"><g id="Layer_1-2" data-name="Layer 1"><path class="cls-1" d="M548,129.6c1.63,30.53,26.71,54.76,54.65,63.65-19.5-19-38.1-44.12-35-72.9a740,740,0,0,0,6.11-96.3C585,30.14,596,36.92,605.13,45.93c33.18,31.65,45.54,78.58,48.13,123,9.83-29.23,12.12-62.54-2-90.81-18.62-38.64-57-62.66-95.6-78.12h-.84c2.35,8.77,3.79,17.87,3.1,27C555.64,61.27,546.6,95.06,548,129.6Z"/><path class="cls-2" d="M660,301c1.09-8.65,2.53-17.33,4.42-25.95,7.5-34.79,21.82-68.53,46.88-94.14,16.12-16.65,37.17-28.09,59.64-33.5-1,35.38,0,70.82-1.73,106.11-5.71,34.3-19.26,72.56-52,89.65,23.21-4.73,45.24-17.12,59.65-36.12,13.11-16.94,19.7-38.2,21.14-59.38a504.56,504.56,0,0,0,0-78.91c-1.11-18.06-4.91-36.38,0-54.18-47.35,8.8-94.47,33.56-120.08,75.65-14.18,22.8-20.06,49.32-20.42,76A215.75,215.75,0,0,0,660,301Z"/><path class="cls-3" d="M690.71,330.2c.88-1.44,1.74-2.91,2.53-4.38,6.65-12.24,10.62-25.74,14.79-38.94,8.15-26.44,8.15-55.71,23.5-79.59-23.23,33.53-36.41,73.59-40.17,114.12C691.09,324.32,690.89,327.26,690.71,330.2Z"/><path class="cls-4" d="M594.76,73c.47,32.37,10.44,64.31,26.71,92.22,1.18,2,2.4,4,3.64,6-.09-1.34-.22-2.68-.39-4-1.35-11-5-21.52-8.41-32C609.37,114.39,595.87,95.49,594.76,73Z"/><path class="cls-5" d="M579.3,304.83c-21.42-17.52-48.52-28.56-64.84-51.79,22.28,34.17,54.41,61.48,90.52,80.26,2.6,1.35,5.24,2.65,7.9,3.92-1-1.36-2-2.71-3.1-4C601,322.45,590,313.68,579.3,304.83Z"/><path class="cls-6" d="M910.81,492.29c-1.42-18.85-5.5-37.87-14-54.62a101.11,101.11,0,0,0-7.11-11.86c-18.6-26.6-49.92-42.08-81.77-48.3-61-11.9-123.58,6.61-184.65-5.43A123.27,123.27,0,0,1,605,367c-14-5.12-27.21-12.42-40.09-20-3.44-2-6.86-4.09-10.24-6.12-32.41-19.59-64.15-42.24-86.53-73.29-13.2-18.12-21.44-39.39-25.5-61.33,30,8.62,60.12,17.71,91.24,21.68a129.41,129.41,0,0,1,46.88,14.26,92,92,0,0,1,8,4.65c29.38,18.26,48,49.59,57.62,82.12.06-26.18-3.41-52.68-12.41-77.33a92.37,92.37,0,0,0-9.24-18.53C618.06,223,609,214.61,597.06,211.26c-47.67-15.12-98.11-20.68-144.67-39.47-14.24-5.68-27.88-13.82-37.27-26.23,0,0-22,196.36,183.73,251.72-38.52,38.52-107.69,86.14-194.07,102.87C345,511.72,277,508.51,205.15,477.21c-60-26.13-89.62-65.65-102.63-106.35-23.4-77.75,11.57-161.31,11.57-161.31C-24.4,294-45.56,514,99.21,604c107.53,70,200.56,17,200.56,17-167,12.5-271.09-123-240.06-147s78,20,156,73a252,252,0,0,0,45.65,24.36c65.65,27,129.29,23.91,129.29,23.91a116.37,116.37,0,0,1-13.29,14.26c-25.24,23.53-87.18,66.71-192.88,54C41.21,646.26,12,550.23,12,550.23,1.68,627,91.21,794.55,253.27,818.55S506.71,716.41,506.71,716.41c-47.26,35.26-129,55.14-129,55.14-197.32,36.38-168.44-43-168.44-43s25.71-63,181.44-56,218.68-103,218.68-103,5,98-78,187.06c-17.68,21.5-40.24,38.09-64.35,50.89-76.8,40.82-169.24,43.14-169.24,43.14l.77.19c4,1,23.55,5.27,52.16,6.45,140,5.78,254.16-75.89,309.11-203.06A578.58,578.58,0,0,0,694.9,541.23c6.31-30.73,3-71.29,23.46-96.84,9.15-11.45,22.54-18.88,36.48-23.37,17.58-5.65,36.75-7,54.59-2.26,35.2,9.32,61.92,43.5,63.5,79.87s-21.45,72.29-54.76,87c-14.79,6.53-31.22,9.23-45.22,17.32s-25.44,24.48-20.46,39.86c2.2,6.77,7.29,12.31,13.18,16.31,26,17.64,62.45,5.38,86.42-15C895,607.7,915.05,548.47,910.81,492.29Z"/></g></g></svg>