<?xml version="1.0" encoding="UTF-8" standalone="no" ?>
<!DOCTYPE svg PUBLIC "-//W3C//DTD SVG 1.1//EN" "http://www.w3.org/Graphics/SVG/1.1/DTD/svg11.dtd">
<svg xmlns="http://www.w3.org/2000/svg" xmlns:xlink="http://www.w3.org/1999/xlink" version="1.1" width="1080" height="1080" viewBox="0 0 1080 1080" xml:space="preserve">
<desc>Created with Fabric.js 5.2.4</desc>
<defs>
</defs>
<g transform="matrix(1 0 0 1 540 540)" id="02e88aff-4ae9-48da-a26f-9fe3e50adea1"  >
</g>
<g transform="matrix(1 0 0 1 540 540)" id="19a17c88-3a6e-45d4-a7b8-dabd850477d1"  >
<rect style="stroke: none; stroke-width: 1; stroke-dasharray: none; stroke-linecap: butt; stroke-dashoffset: 0; stroke-linejoin: miter; stroke-miterlimit: 4; fill: rgb(255,255,255); fill-rule: nonzero; opacity: 1; visibility: hidden;" vector-effect="non-scaling-stroke"  x="-540" y="-540" rx="0" ry="0" width="1080" height="1080" />
</g>
<g transform="matrix(0 0 0 0 0 0)"  >
<g style=""   >
</g>
</g>
<g transform="matrix(2.11 0 0 2.11 540 540)"  >
<g style=""   >
		<g transform="matrix(1 0 0 1 0 0)"  >
<path style="stroke: none; stroke-width: 1; stroke-dasharray: none; stroke-linecap: butt; stroke-dashoffset: 0; stroke-linejoin: miter; stroke-miterlimit: 4; fill: rgb(234,61,1); fill-rule: nonzero; opacity: 1;" vector-effect="non-scaling-stroke"  transform=" translate(-256, -256)" d="M 502.56 202.731 L 449.707 196.864 C 445.909 184.40800000000002 440.908 172.351 434.774 160.864 L 467.99 119.349 C 471.38 115.10600000000001 471.04 108.99300000000001 467.201 105.152 L 406.84900000000005 44.864000000000004 C 403.00800000000004 41.025000000000006 396.89500000000004 40.685 392.65200000000004 44.075 L 351.136 77.28 C 339.649 71.146 327.59200000000004 66.144 315.136 62.347 L 309.269 9.494 C 308.671 4.089 304.104 0 298.667 0 L 213.33399999999997 0 C 207.89699999999996 0 203.32899999999998 4.089 202.73099999999997 9.493 L 196.86399999999998 62.293 C 184.408 66.091 172.35099999999997 71.092 160.86399999999998 77.226 L 119.349 44.01 C 115.10600000000001 40.62 108.99300000000001 40.96 105.152 44.799 L 44.8 105.152 C 40.964 108.996 40.629 115.10900000000001 44.020999999999994 119.349 L 77.28 160.864 C 71.146 172.351 66.144 184.40800000000002 62.347 196.864 L 9.494 202.731 C 4.089 203.329 0 207.896 0 213.333 L 0 298.666 C 0 304.103 4.089 308.671 9.493 309.269 L 62.293 315.136 C 66.091 327.59200000000004 71.092 339.649 77.226 351.136 L 44.01 392.651 C 40.62 396.894 40.96 403.007 44.799 406.848 L 105.151 467.2 C 109.009 471.02 115.121 471.332 119.348 467.925 L 160.863 434.72 C 172.35 440.85400000000004 184.407 445.85600000000005 196.863 449.653 L 202.73 502.50600000000003 C 203.328 507.91 207.89499999999998 512 213.333 511.999 L 298.666 511.999 C 304.085 512.0020000000001 308.645 507.942 309.269 502.559 L 315.136 449.706 C 327.59200000000004 445.908 339.649 440.90700000000004 351.136 434.773 L 392.651 467.98900000000003 C 396.894 471.379 403.007 471.03900000000004 406.848 467.20000000000005 L 467.136 406.84800000000007 C 470.975 403.00700000000006 471.315 396.89400000000006 467.925 392.65100000000007 L 434.72 351.1360000000001 C 440.85400000000004 339.64900000000006 445.85600000000005 327.5920000000001 449.653 315.1360000000001 L 502.50600000000003 309.26900000000006 C 507.91 308.67100000000005 512 304.10400000000004 511.999 298.66600000000005 L 511.999 213.33300000000006 C 512.003 207.914 507.943 203.354 502.56 202.731 z M 490.669 289.12 L 490.667 289.12 L 440.246 294.731 C 435.87199999999996 295.217 432.246 298.339 431.115 302.592 C 427.007 318.097 420.847 332.984 412.8 346.859 C 410.589 350.667 410.945 355.442 413.696 358.88 L 445.408 398.517 L 398.571 445.354 L 358.934 413.642 C 355.49600000000004 410.891 350.721 410.53499999999997 346.913 412.746 C 333.038 420.793 318.151 426.952 302.646 431.061 C 298.39300000000003 432.191 295.271 435.818 294.785 440.192 L 289.17400000000004 490.66700000000003 L 222.93400000000003 490.66700000000003 L 217.27000000000004 440.192 C 216.78400000000005 435.818 213.66200000000003 432.192 209.40900000000005 431.06100000000004 C 193.90400000000005 426.95300000000003 179.01700000000005 420.793 165.14200000000005 412.74600000000004 C 161.33400000000006 410.535 156.55900000000005 410.891 153.12100000000004 413.64200000000005 L 113.48400000000004 445.35400000000004 L 66.64700000000003 398.51700000000005 L 98.35900000000004 358.93300000000005 C 101.11000000000004 355.49500000000006 101.46600000000004 350.72 99.25500000000004 346.91200000000003 C 91.20800000000004 333.03700000000003 85.04900000000004 318.15000000000003 80.94000000000004 302.64500000000004 C 79.81000000000004 298.39200000000005 76.18300000000004 295.27000000000004 71.80900000000004 294.78400000000005 L 21.33400000000004 289.17300000000006 L 21.33400000000004 222.93300000000005 L 71.80900000000004 217.26900000000006 C 76.18300000000004 216.78300000000007 79.80900000000004 213.66100000000006 80.94000000000004 209.40800000000007 C 85.04800000000004 193.90300000000008 91.20800000000004 179.01600000000008 99.25500000000004 165.14100000000008 C 101.46600000000004 161.33300000000008 101.11000000000004 156.55800000000008 98.35900000000004 153.12000000000006 L 66.64700000000003 113.48300000000006 L 113.48400000000004 66.64600000000006 L 153.17500000000004 98.35800000000006 C 156.61300000000003 101.10900000000007 161.38800000000003 101.46500000000006 165.19600000000003 99.25400000000006 C 179.07100000000003 91.20700000000006 193.95800000000003 85.04800000000006 209.46300000000002 80.93900000000006 C 213.716 79.80900000000007 216.83800000000002 76.18200000000006 217.324 71.80800000000006 L 222.935 21.333000000000062 L 289.122 21.333000000000062 L 294.733 71.80800000000006 C 295.219 76.18200000000006 298.341 79.80800000000006 302.594 80.93900000000006 C 318.099 85.04700000000007 332.986 91.20700000000006 346.861 99.25400000000006 C 350.669 101.46500000000006 355.444 101.10900000000007 358.882 98.35800000000006 L 398.519 66.64600000000006 L 445.356 113.53700000000006 L 413.644 153.17400000000006 C 410.89300000000003 156.61200000000005 410.537 161.38700000000006 412.748 165.19500000000005 C 420.795 179.07000000000005 426.954 193.95700000000005 431.063 209.46200000000005 C 432.193 213.71500000000003 435.82 216.83700000000005 440.19399999999996 217.32300000000004 L 490.669 222.93400000000003 L 490.669 289.12 z" stroke-linecap="round" />
</g>
		<g transform="matrix(1 0 0 1 -0.03 -0.01)"  >
<path style="stroke: none; stroke-width: 1; stroke-dasharray: none; stroke-linecap: butt; stroke-dashoffset: 0; stroke-linejoin: miter; stroke-miterlimit: 4; fill: rgb(234,61,1); fill-rule: nonzero; opacity: 1;" vector-effect="non-scaling-stroke"  transform=" translate(-255.97, -255.99)" d="M 386.294 183.083 C 346.022 111.109 255.03099999999998 85.408 183.057 125.679 C 111.083 165.95 85.38199999999999 256.943 125.654 328.91700000000003 C 126.131 329.76800000000003 126.722 330.55 127.41199999999999 331.24100000000004 C 131.57399999999998 335.41 138.328 335.415 142.49699999999999 331.25300000000004 L 212.182 261.56800000000004 L 236.8 294.4 C 237.103 294.803 237.43300000000002 295.185 237.79000000000002 295.541 C 241.95600000000002 299.707 248.70900000000003 299.707 252.87500000000003 295.541 L 320 228.416 L 320 266.667 L 341.33299999999997 266.667 L 341.33299999999997 202.66699999999997 L 341.33099999999996 202.66699999999997 C 341.33099999999996 196.777 336.55699999999996 192.00199999999998 330.667 191.99999999999997 L 266.667 191.99999999999997 L 266.667 213.33299999999997 L 304.91799999999995 213.33299999999997 L 246.48599999999993 271.765 L 221.86699999999993 238.933 C 220.01699999999994 236.44899999999998 217.17899999999995 234.892 214.09099999999992 234.666 C 211.00599999999991 234.47899999999998 207.98799999999991 235.61599999999999 205.79199999999992 237.791 L 137.973 305.6 C 119.63500000000002 261.95500000000004 126.93500000000002 211.747 156.94400000000002 175.13200000000003 C 201.668 120.56100000000004 282.163 112.57800000000003 336.735 157.30300000000003 C 391.30600000000004 202.02700000000002 399.289 282.52200000000005 354.564 337.09400000000005 C 350.442 342.12300000000005 346.01500000000004 346.7540000000001 341.334 350.9870000000001 L 341.334 288 L 320 288 L 320 366.569 C 313.164 370.54400000000004 306.02 373.846 298.66700000000003 376.46000000000004 L 298.66700000000003 309.333 L 277.33400000000006 309.333 L 277.33400000000006 382.03200000000004 C 270.28900000000004 383.23600000000005 263.15100000000007 383.85200000000003 256.0010000000001 383.869 L 256.0010000000001 341.333 L 234.6680000000001 341.333 L 234.6680000000001 382.136 C 227.45800000000008 380.937 220.32000000000008 379.10900000000004 213.3350000000001 376.651 L 213.3350000000001 320 L 192 320 L 192 366.834 C 186.038 363.391 180.272 359.42900000000003 174.773 354.923 L 161.216 371.403 C 187.94 393.327 221.43400000000003 405.317 256 405.334 C 281.523 405.33 306.618 398.784 328.891 386.321 C 400.865 346.05 426.566 255.057 386.294 183.083 z" stroke-linecap="round" />
</g>
</g>
</g>
<g transform="matrix(NaN NaN NaN NaN 0 0)"  >
<g style=""   >
</g>
</g>
<g transform="matrix(NaN NaN NaN NaN 0 0)"  >
<g style=""   >
</g>
</g>
</svg>