<?xml version="1.0" encoding="UTF-8" standalone="no" ?>
<!DOCTYPE svg PUBLIC "-//W3C//DTD SVG 1.1//EN" "http://www.w3.org/Graphics/SVG/1.1/DTD/svg11.dtd">
<svg xmlns="http://www.w3.org/2000/svg" xmlns:xlink="http://www.w3.org/1999/xlink" version="1.1" width="1080" height="1080" viewBox="0 0 1080 1080" xml:space="preserve">
<desc>Created with Fabric.js 5.2.4</desc>
<defs>
</defs>
<g transform="matrix(1 0 0 1 540 540)" id="19a17c88-3a6e-45d4-a7b8-dabd850477d1"  >
<rect style="stroke: none; stroke-width: 1; stroke-dasharray: none; stroke-linecap: butt; stroke-dashoffset: 0; stroke-linejoin: miter; stroke-miterlimit: 4; fill: rgb(255,255,255); fill-rule: nonzero; opacity: 1; visibility: hidden;" vector-effect="non-scaling-stroke"  x="-540" y="-540" rx="0" ry="0" width="1080" height="1080" />
</g>
<g transform="matrix(1 0 0 1 540 540)" id="02e88aff-4ae9-48da-a26f-9fe3e50adea1"  >
</g>
<g transform="matrix(2.11 0 0 2.11 540 540)"  >
<g style=""   >
		<g transform="matrix(1 0 0 1 0 -128)"  >
<path style="stroke: none; stroke-width: 1; stroke-dasharray: none; stroke-linecap: butt; stroke-dashoffset: 0; stroke-linejoin: miter; stroke-miterlimit: 4; fill: rgb(234,61,1); fill-rule: nonzero; opacity: 1;" vector-effect="non-scaling-stroke"  transform=" translate(-256, -128)" d="M 288.076 117.333 L 223.937 117.333 C 218.07100000000003 117.298 213.334 112.532 213.334 106.666 L 213.334 96 C 213.334 90.109 218.11 85.333 224.001 85.333 L 245.334 85.333 L 266.66700000000003 85.333 L 288 85.333 C 293.891 85.333 298.667 90.109 298.667 96 L 320 96 C 320 78.327 305.673 64 288 64 L 266.66700000000003 64 L 266.66700000000003 42.667 L 245.33400000000003 42.667 L 245.33400000000003 64 L 224.00100000000003 64 C 206.32800000000003 64 192.00100000000003 78.327 192.00100000000003 96 L 192.00100000000003 106.667 C 192.00100000000003 124.315 206.28900000000004 138.632 223.93700000000004 138.667 L 288.076 138.667 C 293.93800000000005 138.708 298.668 143.472 298.668 149.334 L 298.668 160 C 298.669 165.891 293.89300000000003 170.667 288.002 170.667 L 224.002 170.667 C 218.11100000000002 170.667 213.335 165.891 213.335 160 L 192.002 160 C 192.002 177.673 206.329 192 224.002 192 L 245.335 192 L 245.335 213.333 L 266.668 213.333 L 266.668 192 L 288.001 192 C 305.674 192 320.001 177.673 320.001 160 L 320.001 149.333 C 320.001 131.689 305.72 117.374 288.076 117.333 z" stroke-linecap="round" />
</g>
		<g transform="matrix(1 0 0 1 0 -128)"  >
<path style="stroke: none; stroke-width: 1; stroke-dasharray: none; stroke-linecap: butt; stroke-dashoffset: 0; stroke-linejoin: miter; stroke-miterlimit: 4; fill: rgb(234,61,1); fill-rule: nonzero; opacity: 1;" vector-effect="non-scaling-stroke"  transform=" translate(-256, -128)" d="M 256.002 0 C 185.31 0 128.002 57.308 128.002 128 C 128.002 198.692 185.31 256 256.002 256 C 326.663 255.924 383.92600000000004 198.661 384.002 128 C 384.002 57.308 326.694 0 256.002 0 z M 256.002 234.667 C 197.091 234.667 149.336 186.91 149.336 128 C 149.336 69.09 197.092 21.333 256.002 21.333 C 314.886 21.398 362.604 69.116 362.669 128 C 362.669 186.91 314.913 234.667 256.002 234.667 z" stroke-linecap="round" />
</g>
		<g transform="matrix(1 0 0 1 0 122.67)"  >
<path style="stroke: none; stroke-width: 1; stroke-dasharray: none; stroke-linecap: butt; stroke-dashoffset: 0; stroke-linejoin: miter; stroke-miterlimit: 4; fill: rgb(234,61,1); fill-rule: nonzero; opacity: 1;" vector-effect="non-scaling-stroke"  transform=" translate(-256, -378.67)" d="M 426.669 362.667 L 352.162 362.667 C 387.381 346.67199999999997 422.195 318.695 436.888 269.72799999999995 C 437.186 268.73499999999996 437.337 267.703 437.337 266.66599999999994 C 437.337 260.7749999999999 432.561 255.99999999999994 426.67 255.99999999999994 C 406.716 256.10099999999994 386.976 260.11699999999996 368.569 267.81899999999996 L 378.105 286.912 C 388.51 282.286 399.606 279.40299999999996 410.94800000000004 278.37899999999996 C 384.75100000000003 336.74699999999996 319.40700000000004 354.71 282.47900000000004 360.21399999999994 C 297.96700000000004 344.9069999999999 321.23100000000005 325.35499999999996 343.91900000000004 319.6809999999999 L 338.75600000000003 298.98799999999994 C 310.992 305.9309999999999 283.98400000000004 328.61999999999995 266.67100000000005 345.8469999999999 L 266.67100000000005 289.8109999999999 L 297.34800000000007 294.6149999999999 C 298.94700000000006 294.8149999999999 300.55800000000005 294.9149999999999 302.1690000000001 294.9139999999999 C 319.5520000000001 294.90999999999985 334.8260000000001 283.3839999999999 339.59800000000007 266.66899999999987 L 352.00300000000004 266.66899999999987 L 352.00300000000004 245.33599999999987 L 330.42400000000004 245.33599999999987 C 324.533 245.33599999999987 319.75700000000006 250.11199999999988 319.75700000000006 256.0029999999999 C 319.78200000000004 261.0499999999999 317.60900000000004 265.85899999999987 313.80500000000006 269.1759999999999 C 310.14200000000005 272.48899999999986 305.22900000000004 274.0629999999999 300.32200000000006 273.49599999999987 L 257.6550000000001 266.79699999999985 C 256.5590000000001 266.62599999999986 255.44400000000007 266.62599999999986 254.3480000000001 266.79699999999985 L 212.0120000000001 273.45299999999986 C 211.30600000000013 273.53999999999985 210.59600000000012 273.58399999999983 209.8850000000001 273.58499999999987 C 200.1590000000001 273.59999999999985 192.2620000000001 265.72799999999984 192.2470000000001 256.00199999999984 C 192.2470000000001 250.11099999999985 187.4710000000001 245.33499999999984 181.5800000000001 245.33499999999984 L 160.0010000000001 245.33499999999984 L 160.0010000000001 266.66799999999984 L 172.4060000000001 266.66799999999984 C 177.7230000000001 285.2339999999998 195.84500000000008 297.09599999999983 214.98700000000008 294.53999999999985 L 245.3340000000001 289.80399999999986 L 245.3340000000001 345.81399999999985 C 228.0210000000001 328.5869999999999 201.01200000000009 305.89799999999985 173.24900000000008 298.95499999999987 L 168.08600000000007 319.64799999999985 C 190.71000000000006 325.2909999999998 214.00600000000009 344.85299999999984 229.49400000000009 360.18099999999987 C 192.5660000000001 354.6659999999999 127.24300000000008 336.7039999999999 101.05700000000007 278.3459999999999 C 112.39800000000007 279.3699999999999 123.49400000000007 282.2529999999999 133.9000000000001 286.8789999999999 L 143.4360000000001 267.7859999999999 C 125.0260000000001 260.0949999999999 105.28600000000009 256.0909999999999 85.3350000000001 255.99899999999988 C 84.29800000000009 255.99899999999988 83.26600000000009 256.14999999999986 82.2730000000001 256.44799999999987 C 76.6300000000001 258.13899999999984 73.4260000000001 264.0839999999999 75.1160000000001 269.72699999999986 C 89.8090000000001 318.69299999999987 124.6230000000001 346.6709999999999 159.8420000000001 362.6659999999998 L 85.336 362.6659999999998 C 79.445 362.6659999999998 74.669 367.44199999999984 74.669 373.3329999999998 L 74.669 416 C 74.669 421.891 79.445 426.667 85.336 426.667 L 106.669 426.667 L 106.669 501.33399999999995 C 106.669 507.22499999999997 111.445 512.001 117.336 512.001 L 394.66900000000004 512.001 C 400.56000000000006 512.001 405.336 507.22499999999997 405.336 501.334 L 405.336 426.66700000000003 L 426.669 426.66700000000003 C 432.56 426.66700000000003 437.33599999999996 421.891 437.33599999999996 416.00000000000006 L 437.33599999999996 373.3330000000001 C 437.336 367.442 432.56 362.667 426.669 362.667 z M 416.002 405.333 L 384.002 405.333 L 384.002 416 L 384.002 426.667 L 384.002 490.667 L 128.002 490.667 L 128.002 426.667 L 352.002 426.667 L 352.002 405.33399999999995 L 96.00200000000001 405.33399999999995 L 96.00200000000001 384 L 416.002 384 L 416.002 405.333 z" stroke-linecap="round" />
</g>
		<g transform="matrix(1 0 0 1 -95.99 202.67)"  >
<rect style="stroke: none; stroke-width: 1; stroke-dasharray: none; stroke-linecap: butt; stroke-dashoffset: 0; stroke-linejoin: miter; stroke-miterlimit: 4; fill: rgb(234,61,1); fill-rule: nonzero; opacity: 1;" vector-effect="non-scaling-stroke"  x="-10.6665" y="-10.6665" rx="0" ry="0" width="21.333" height="21.333" />
</g>
		<g transform="matrix(1 0 0 1 -53.33 202.67)"  >
<rect style="stroke: none; stroke-width: 1; stroke-dasharray: none; stroke-linecap: butt; stroke-dashoffset: 0; stroke-linejoin: miter; stroke-miterlimit: 4; fill: rgb(234,61,1); fill-rule: nonzero; opacity: 1;" vector-effect="non-scaling-stroke"  x="-10.6665" y="-10.6665" rx="0" ry="0" width="21.333" height="21.333" />
</g>
</g>
</g>
<g transform="matrix(NaN NaN NaN NaN 0 0)"  >
<g style=""   >
</g>
</g>
<g transform="matrix(NaN NaN NaN NaN 0 0)"  >
<g style=""   >
</g>
</g>
</svg>